<?xml version="1.0"?>
<svg xmlns="http://www.w3.org/2000/svg" xmlns:xlink="http://www.w3.org/1999/xlink" xmlns:svgjs="http://svgjs.com/svgjs" version="1.1" width="512" height="512" x="0" y="0" viewBox="0 0 512 512" style="enable-background:new 0 0 512 512" xml:space="preserve" class=""><g><path xmlns="http://www.w3.org/2000/svg" d="m198.34375 346.261719-72.511719-72.511719 21.210938-21.214844 51.300781 51.300782 127.488281-127.488282 21.210938 21.210938zm0 0" fill="#ffffff" data-original="#000000" style="" class=""/><path xmlns="http://www.w3.org/2000/svg" d="m236.4375 512c-47.566406 0-89.453125-30.523438-104.371094-75.226562-46.226562 9.445312-93.578125-11.632813-117.328125-52.773438-23.785156-41.195312-18.292969-92.730469 12.957031-128-31.292968-35.316406-36.710937-86.863281-12.957031-128 23.78125-41.195312 71.160157-62.203125 117.332031-52.773438 14.933594-44.757812 56.867188-75.226562 104.367188-75.226562 47.566406 0 89.457031 30.523438 104.371094 75.226562 46.234375-9.445312 93.582031 11.632813 117.332031 52.773438 23.785156 41.195312 18.292969 92.730469-12.957031 128 31.292968 35.316406 36.710937 86.863281 12.957031 128-23.78125 41.195312-71.160156 62.207031-117.332031 52.773438-14.933594 44.757812-56.867188 75.226562-104.371094 75.226562zm-81.890625-114.164062 3.050781 17.792968c6.59375 38.457032 39.75 66.371094 78.839844 66.371094 39.09375 0 72.25-27.914062 78.839844-66.371094l3.050781-17.792968 16.929687 6.253906c9.117188 3.371094 18.5 4.980468 27.738282 4.980468 27.855468.003907 54.488281-14.648437 69.164062-40.070312 19.542969-33.855469 11.949219-76.527344-18.058594-101.464844l-13.882812-11.535156 13.882812-11.535156c30.007813-24.941406 37.605469-67.613282 18.058594-101.464844-19.546875-33.855469-60.296875-48.613281-96.898437-35.09375l-16.933594 6.253906-3.046875-17.789062c-6.59375-38.457032-39.75-66.371094-78.84375-66.371094-39.089844 0-72.246094 27.914062-78.839844 66.371094l-3.046875 17.792968-16.933593-6.253906c-36.601563-13.519531-77.355469 1.238282-96.898438 35.089844-19.546875 33.855469-11.949219 76.527344 18.058594 101.464844l13.882812 11.535156-13.882812 11.535156c-30.011719 24.941406-37.605469 67.613282-18.0625 101.464844 19.546875 33.851562 60.296875 48.613281 96.902344 35.09375zm0 0" fill="#ffffff" data-original="#000000" style="" class=""/></g></svg>
